<svg viewBox="0 0 64 64" xmlns="http://www.w3.org/2000/svg">
  <defs>
    <linearGradient id="g1" x1="0%" y1="0%" x2="100%" y2="100%">
      <stop offset="0%" stop-color="#00c4ff"/>
      <stop offset="100%" stop-color="#4060ff"/>
    </linearGradient>
    <filter id="glow">
      <feGaussianBlur stdDeviation="1.5" result="blur"/>
      <feMerge><feMergeNode in="blur"/><feMergeNode in="SourceGraphic"/></feMerge>
    </filter>
  </defs>
  <rect width="64" height="64" rx="10" fill="#04060f"/>
  <polygon points="32,4 57,18 57,46 32,60 7,46 7,18"
    fill="none" stroke="url(#g1)" stroke-width="1.5" opacity="0.65"/>
  <polygon points="32,14 48,23 48,41 32,50 16,41 16,23"
    fill="none" stroke="#00c4ff" stroke-width="0.7" opacity="0.2"/>
  <circle cx="32" cy="14" r="4.5" fill="#00c4ff" filter="url(#glow)"/>
  <circle cx="47" cy="40" r="4.5" fill="#4060ff" filter="url(#glow)"/>
  <circle cx="17" cy="40" r="4.5" fill="#00c4ff" filter="url(#glow)"/>
  <line x1="32" y1="18.5" x2="44" y2="36.5" stroke="#00c4ff" stroke-width="1.8" opacity="0.8" stroke-linecap="round"/>
  <line x1="32" y1="18.5" x2="20" y2="36.5" stroke="#00c4ff" stroke-width="1.8" opacity="0.8" stroke-linecap="round"/>
  <line x1="19" y1="40.5" x2="45" y2="40.5" stroke="#4060ff" stroke-width="1.8" opacity="0.65" stroke-linecap="round"/>
  <path d="M35 33 L42 29 L41 35 Z" fill="#00ffb3" opacity="0.95"/>
  <circle cx="32" cy="32" r="3.5" fill="none" stroke="#00c4ff" stroke-width="0.9" opacity="0.35"/>
  <circle cx="32" cy="32" r="1.2" fill="#00c4ff" opacity="0.5"/>
</svg>
